<mxfile host="65bd71144e">
    <diagram id="PC2qWhNy6fOBh_fakCe_" name="Page-1">
        <mxGraphModel dx="3304" dy="2856" grid="0" gridSize="10" guides="1" tooltips="1" connect="1" arrows="1" fold="1" page="0" pageScale="1" pageWidth="850" pageHeight="1100" math="0" shadow="0">
            <root>
                <mxCell id="0"/>
                <mxCell id="1" parent="0"/>
                <mxCell id="2" style="shape=connector;rounded=1;orthogonalLoop=1;jettySize=auto;html=1;exitX=0.503;exitY=1.048;exitDx=0;exitDy=0;entryX=0.528;entryY=0.013;entryDx=0;entryDy=0;strokeColor=default;align=center;verticalAlign=middle;fontFamily=Helvetica;fontSize=11;fontColor=default;labelBackgroundColor=default;endArrow=block;strokeWidth=3;entryPerimeter=0;endFill=0;exitPerimeter=0;edgeStyle=orthogonalEdgeStyle;" edge="1" parent="1" source="19" target="147">
                    <mxGeometry relative="1" as="geometry">
                        <mxPoint x="1540" y="1002" as="sourcePoint"/>
                        <mxPoint x="1359" y="1222" as="targetPoint"/>
                        <Array as="points">
                            <mxPoint x="1463" y="1129"/>
                            <mxPoint x="1345" y="1129"/>
                        </Array>
                    </mxGeometry>
                </mxCell>
                <mxCell id="3" value="&lt;font style=&quot;font-size: 16px;&quot;&gt;extends&lt;/font&gt;" style="edgeLabel;html=1;align=center;verticalAlign=middle;resizable=0;points=[];fontFamily=Helvetica;fontSize=11;fontColor=default;labelBackgroundColor=default;fontStyle=1" connectable="0" vertex="1" parent="2">
                    <mxGeometry x="0.0588" y="1" relative="1" as="geometry">
                        <mxPoint as="offset"/>
                    </mxGeometry>
                </mxCell>
                <mxCell id="4" style="shape=connector;rounded=1;orthogonalLoop=1;jettySize=auto;html=1;exitX=0.5;exitY=1;exitDx=0;exitDy=0;entryX=0.5;entryY=0;entryDx=0;entryDy=0;strokeColor=default;align=center;verticalAlign=middle;fontFamily=Helvetica;fontSize=11;fontColor=default;labelBackgroundColor=default;endArrow=block;strokeWidth=3;endFill=0;edgeStyle=orthogonalEdgeStyle;" edge="1" parent="1" source="8" target="161">
                    <mxGeometry relative="1" as="geometry"/>
                </mxCell>
                <mxCell id="5" value="&lt;font style=&quot;font-size: 16px;&quot;&gt;extends&lt;/font&gt;" style="edgeLabel;html=1;align=center;verticalAlign=middle;resizable=0;points=[];fontFamily=Helvetica;fontSize=11;fontColor=default;labelBackgroundColor=default;fontStyle=1" connectable="0" vertex="1" parent="4">
                    <mxGeometry x="-0.0599" y="-3" relative="1" as="geometry">
                        <mxPoint as="offset"/>
                    </mxGeometry>
                </mxCell>
                <mxCell id="6" style="shape=connector;rounded=1;orthogonalLoop=1;jettySize=auto;html=1;exitX=0.5;exitY=1;exitDx=0;exitDy=0;entryX=0.5;entryY=0;entryDx=0;entryDy=0;strokeColor=default;align=center;verticalAlign=middle;fontFamily=Helvetica;fontSize=11;fontColor=default;labelBackgroundColor=default;endArrow=block;strokeWidth=3;endFill=0;edgeStyle=orthogonalEdgeStyle;" edge="1" parent="1" source="8" target="156">
                    <mxGeometry relative="1" as="geometry">
                        <Array as="points">
                            <mxPoint x="1463" y="1184"/>
                            <mxPoint x="1733" y="1184"/>
                        </Array>
                    </mxGeometry>
                </mxCell>
                <mxCell id="7" value="&lt;font style=&quot;font-size: 16px;&quot;&gt;extends&lt;/font&gt;" style="edgeLabel;html=1;align=center;verticalAlign=middle;resizable=0;points=[];fontFamily=Helvetica;fontSize=11;fontColor=default;labelBackgroundColor=default;fontStyle=1" connectable="0" vertex="1" parent="6">
                    <mxGeometry x="0.0314" y="-3" relative="1" as="geometry">
                        <mxPoint as="offset"/>
                    </mxGeometry>
                </mxCell>
                <mxCell id="8" value="User" style="swimlane;fontStyle=1;align=center;verticalAlign=top;childLayout=stackLayout;horizontal=1;startSize=26;horizontalStack=0;resizeParent=1;resizeParentMax=0;resizeLast=0;collapsible=1;marginBottom=0;whiteSpace=wrap;html=1;fontSize=16;" vertex="1" parent="1">
                    <mxGeometry x="1328" y="699" width="269" height="294" as="geometry"/>
                </mxCell>
                <mxCell id="9" value="- userId: UUID" style="text;strokeColor=none;fillColor=none;align=left;verticalAlign=top;spacingLeft=4;spacingRight=4;overflow=hidden;rotatable=0;points=[[0,0.5],[1,0.5]];portConstraint=eastwest;whiteSpace=wrap;html=1;fontSize=16;" vertex="1" parent="8">
                    <mxGeometry y="26" width="269" height="26" as="geometry"/>
                </mxCell>
                <mxCell id="10" value="- name: string&lt;div&gt;&lt;br&gt;&lt;/div&gt;" style="text;strokeColor=none;fillColor=none;align=left;verticalAlign=top;spacingLeft=4;spacingRight=4;overflow=hidden;rotatable=0;points=[[0,0.5],[1,0.5]];portConstraint=eastwest;whiteSpace=wrap;html=1;fontSize=16;" vertex="1" parent="8">
                    <mxGeometry y="52" width="269" height="26" as="geometry"/>
                </mxCell>
                <mxCell id="11" value="- passwordHash: string" style="text;strokeColor=none;fillColor=none;align=left;verticalAlign=top;spacingLeft=4;spacingRight=4;overflow=hidden;rotatable=0;points=[[0,0.5],[1,0.5]];portConstraint=eastwest;whiteSpace=wrap;html=1;fontSize=16;" vertex="1" parent="8">
                    <mxGeometry y="78" width="269" height="26" as="geometry"/>
                </mxCell>
                <mxCell id="12" value="- email: string" style="text;strokeColor=none;fillColor=none;align=left;verticalAlign=top;spacingLeft=4;spacingRight=4;overflow=hidden;rotatable=0;points=[[0,0.5],[1,0.5]];portConstraint=eastwest;whiteSpace=wrap;html=1;fontSize=16;" vertex="1" parent="8">
                    <mxGeometry y="104" width="269" height="26" as="geometry"/>
                </mxCell>
                <mxCell id="13" value="- role: List&amp;lt;String&amp;gt;" style="text;strokeColor=none;fillColor=none;align=left;verticalAlign=top;spacingLeft=4;spacingRight=4;overflow=hidden;rotatable=0;points=[[0,0.5],[1,0.5]];portConstraint=eastwest;whiteSpace=wrap;html=1;fontSize=16;" vertex="1" parent="8">
                    <mxGeometry y="130" width="269" height="26" as="geometry"/>
                </mxCell>
                <mxCell id="14" value="- status: UserStatus" style="text;strokeColor=none;fillColor=none;align=left;verticalAlign=top;spacingLeft=4;spacingRight=4;overflow=hidden;rotatable=0;points=[[0,0.5],[1,0.5]];portConstraint=eastwest;whiteSpace=wrap;html=1;fontSize=16;" vertex="1" parent="8">
                    <mxGeometry y="156" width="269" height="26" as="geometry"/>
                </mxCell>
                <mxCell id="15" value="" style="line;strokeWidth=1;fillColor=none;align=left;verticalAlign=middle;spacingTop=-1;spacingLeft=3;spacingRight=3;rotatable=0;labelPosition=right;points=[];portConstraint=eastwest;strokeColor=inherit;fontSize=16;" vertex="1" parent="8">
                    <mxGeometry y="182" width="269" height="8" as="geometry"/>
                </mxCell>
                <mxCell id="16" value="+ login()" style="text;strokeColor=none;fillColor=none;align=left;verticalAlign=top;spacingLeft=4;spacingRight=4;overflow=hidden;rotatable=0;points=[[0,0.5],[1,0.5]];portConstraint=eastwest;whiteSpace=wrap;html=1;fontSize=16;" vertex="1" parent="8">
                    <mxGeometry y="190" width="269" height="26" as="geometry"/>
                </mxCell>
                <mxCell id="17" value="+ logout()" style="text;strokeColor=none;fillColor=none;align=left;verticalAlign=top;spacingLeft=4;spacingRight=4;overflow=hidden;rotatable=0;points=[[0,0.5],[1,0.5]];portConstraint=eastwest;whiteSpace=wrap;html=1;fontSize=16;" vertex="1" parent="8">
                    <mxGeometry y="216" width="269" height="26" as="geometry"/>
                </mxCell>
                <mxCell id="18" value="+ updateProfileDetails()" style="text;strokeColor=none;fillColor=none;align=left;verticalAlign=top;spacingLeft=4;spacingRight=4;overflow=hidden;rotatable=0;points=[[0,0.5],[1,0.5]];portConstraint=eastwest;whiteSpace=wrap;html=1;fontSize=16;" vertex="1" parent="8">
                    <mxGeometry y="242" width="269" height="26" as="geometry"/>
                </mxCell>
                <mxCell id="19" value="+ changePassword()" style="text;strokeColor=none;fillColor=none;align=left;verticalAlign=top;spacingLeft=4;spacingRight=4;overflow=hidden;rotatable=0;points=[[0,0.5],[1,0.5]];portConstraint=eastwest;whiteSpace=wrap;html=1;fontSize=16;" vertex="1" parent="8">
                    <mxGeometry y="268" width="269" height="26" as="geometry"/>
                </mxCell>
                <mxCell id="20" value="&lt;i&gt;&amp;lt;&amp;lt;Enums&amp;gt;&amp;gt;&lt;/i&gt;&lt;div&gt;&lt;b&gt;UserStatus&lt;/b&gt;&lt;/div&gt;" style="swimlane;fontStyle=0;childLayout=stackLayout;horizontal=1;startSize=38;fillColor=none;horizontalStack=0;resizeParent=1;resizeParentMax=0;resizeLast=0;collapsible=1;marginBottom=0;whiteSpace=wrap;html=1;fontSize=16;" vertex="1" parent="1">
                    <mxGeometry x="1678" y="936" width="140" height="116" as="geometry"/>
                </mxCell>
                <mxCell id="21" value="Online" style="text;strokeColor=none;fillColor=none;align=left;verticalAlign=top;spacingLeft=4;spacingRight=4;overflow=hidden;rotatable=0;points=[[0,0.5],[1,0.5]];portConstraint=eastwest;whiteSpace=wrap;html=1;fontSize=16;" vertex="1" parent="20">
                    <mxGeometry y="38" width="140" height="26" as="geometry"/>
                </mxCell>
                <mxCell id="22" value="Offline" style="text;strokeColor=none;fillColor=none;align=left;verticalAlign=top;spacingLeft=4;spacingRight=4;overflow=hidden;rotatable=0;points=[[0,0.5],[1,0.5]];portConstraint=eastwest;whiteSpace=wrap;html=1;fontSize=16;" vertex="1" parent="20">
                    <mxGeometry y="64" width="140" height="26" as="geometry"/>
                </mxCell>
                <mxCell id="23" value="Idle" style="text;strokeColor=none;fillColor=none;align=left;verticalAlign=top;spacingLeft=4;spacingRight=4;overflow=hidden;rotatable=0;points=[[0,0.5],[1,0.5]];portConstraint=eastwest;whiteSpace=wrap;html=1;fontSize=16;" vertex="1" parent="20">
                    <mxGeometry y="90" width="140" height="26" as="geometry"/>
                </mxCell>
                <mxCell id="24" value="" style="edgeStyle=orthogonalEdgeStyle;shape=connector;curved=0;rounded=1;html=1;strokeColor=default;strokeWidth=3;align=center;verticalAlign=middle;fontFamily=Helvetica;fontSize=11;fontColor=default;labelBackgroundColor=default;startArrow=ERoneToMany;startFill=0;endArrow=ERoneToMany;endFill=0;entryX=0.5;entryY=0;entryDx=0;entryDy=0;" edge="1" parent="1" source="26" target="108">
                    <mxGeometry relative="1" as="geometry"/>
                </mxCell>
                <mxCell id="25" value="&lt;b&gt;&lt;font style=&quot;font-size: 16px;&quot;&gt;Has&lt;/font&gt;&lt;/b&gt;" style="edgeLabel;html=1;align=center;verticalAlign=middle;resizable=0;points=[];fontFamily=Helvetica;fontSize=11;fontColor=default;labelBackgroundColor=default;" vertex="1" connectable="0" parent="24">
                    <mxGeometry x="0.0636" y="-2" relative="1" as="geometry">
                        <mxPoint as="offset"/>
                    </mxGeometry>
                </mxCell>
                <mxCell id="26" value="Task" style="swimlane;fontStyle=1;childLayout=stackLayout;horizontal=1;startSize=26;fillColor=none;horizontalStack=0;resizeParent=1;resizeParentMax=0;resizeLast=0;collapsible=1;marginBottom=0;whiteSpace=wrap;html=1;fontSize=16;" vertex="1" parent="1">
                    <mxGeometry x="-72" y="259" width="250" height="476" as="geometry"/>
                </mxCell>
                <mxCell id="27" value="- taskId: UUID" style="text;strokeColor=none;fillColor=none;align=left;verticalAlign=top;spacingLeft=4;spacingRight=4;overflow=hidden;rotatable=0;points=[[0,0.5],[1,0.5]];portConstraint=eastwest;whiteSpace=wrap;html=1;fontSize=16;" vertex="1" parent="26">
                    <mxGeometry y="26" width="250" height="26" as="geometry"/>
                </mxCell>
                <mxCell id="28" value="- taskName: string" style="text;strokeColor=none;fillColor=none;align=left;verticalAlign=top;spacingLeft=4;spacingRight=4;overflow=hidden;rotatable=0;points=[[0,0.5],[1,0.5]];portConstraint=eastwest;whiteSpace=wrap;html=1;fontSize=16;" vertex="1" parent="26">
                    <mxGeometry y="52" width="250" height="26" as="geometry"/>
                </mxCell>
                <mxCell id="29" value="- taskType: string" style="text;strokeColor=none;fillColor=none;align=left;verticalAlign=top;spacingLeft=4;spacingRight=4;overflow=hidden;rotatable=0;points=[[0,0.5],[1,0.5]];portConstraint=eastwest;whiteSpace=wrap;html=1;fontSize=16;" vertex="1" parent="26">
                    <mxGeometry y="78" width="250" height="26" as="geometry"/>
                </mxCell>
                <mxCell id="30" value="- description: string" style="text;strokeColor=none;fillColor=none;align=left;verticalAlign=top;spacingLeft=4;spacingRight=4;overflow=hidden;rotatable=0;points=[[0,0.5],[1,0.5]];portConstraint=eastwest;whiteSpace=wrap;html=1;fontSize=16;" vertex="1" parent="26">
                    <mxGeometry y="104" width="250" height="26" as="geometry"/>
                </mxCell>
                <mxCell id="31" value="- taskStatus: TaskStatus" style="text;strokeColor=none;fillColor=none;align=left;verticalAlign=top;spacingLeft=4;spacingRight=4;overflow=hidden;rotatable=0;points=[[0,0.5],[1,0.5]];portConstraint=eastwest;whiteSpace=wrap;html=1;fontSize=16;" vertex="1" parent="26">
                    <mxGeometry y="130" width="250" height="26" as="geometry"/>
                </mxCell>
                <mxCell id="32" value="- estimatedTime: int" style="text;strokeColor=none;fillColor=none;align=left;verticalAlign=top;spacingLeft=4;spacingRight=4;overflow=hidden;rotatable=0;points=[[0,0.5],[1,0.5]];portConstraint=eastwest;whiteSpace=wrap;html=1;fontSize=16;" vertex="1" parent="26">
                    <mxGeometry y="156" width="250" height="26" as="geometry"/>
                </mxCell>
                <mxCell id="33" value="- isRecurring: boolean" style="text;strokeColor=none;fillColor=none;align=left;verticalAlign=top;spacingLeft=4;spacingRight=4;overflow=hidden;rotatable=0;points=[[0,0.5],[1,0.5]];portConstraint=eastwest;whiteSpace=wrap;html=1;fontSize=16;" vertex="1" parent="26">
                    <mxGeometry y="182" width="250" height="26" as="geometry"/>
                </mxCell>
                <mxCell id="34" value="- category: string" style="text;strokeColor=none;fillColor=none;align=left;verticalAlign=top;spacingLeft=4;spacingRight=4;overflow=hidden;rotatable=0;points=[[0,0.5],[1,0.5]];portConstraint=eastwest;whiteSpace=wrap;html=1;fontSize=16;" vertex="1" parent="26">
                    <mxGeometry y="208" width="250" height="26" as="geometry"/>
                </mxCell>
                <mxCell id="35" value="- createAt: datetime" style="text;strokeColor=none;fillColor=none;align=left;verticalAlign=top;spacingLeft=4;spacingRight=4;overflow=hidden;rotatable=0;points=[[0,0.5],[1,0.5]];portConstraint=eastwest;whiteSpace=wrap;html=1;fontSize=16;" vertex="1" parent="26">
                    <mxGeometry y="234" width="250" height="26" as="geometry"/>
                </mxCell>
                <mxCell id="36" value="- startDate: datetime" style="text;strokeColor=none;fillColor=none;align=left;verticalAlign=top;spacingLeft=4;spacingRight=4;overflow=hidden;rotatable=0;points=[[0,0.5],[1,0.5]];portConstraint=eastwest;whiteSpace=wrap;html=1;fontSize=16;" vertex="1" parent="26">
                    <mxGeometry y="260" width="250" height="26" as="geometry"/>
                </mxCell>
                <mxCell id="37" value="- endDate: datetime" style="text;strokeColor=none;fillColor=none;align=left;verticalAlign=top;spacingLeft=4;spacingRight=4;overflow=hidden;rotatable=0;points=[[0,0.5],[1,0.5]];portConstraint=eastwest;whiteSpace=wrap;html=1;fontSize=16;" vertex="1" parent="26">
                    <mxGeometry y="286" width="250" height="26" as="geometry"/>
                </mxCell>
                <mxCell id="38" value="- comment: List&amp;lt;Comments&amp;gt;" style="text;strokeColor=none;fillColor=none;align=left;verticalAlign=top;spacingLeft=4;spacingRight=4;overflow=hidden;rotatable=0;points=[[0,0.5],[1,0.5]];portConstraint=eastwest;whiteSpace=wrap;html=1;fontSize=16;" vertex="1" parent="26">
                    <mxGeometry y="312" width="250" height="26" as="geometry"/>
                </mxCell>
                <mxCell id="39" value="- attachment: List&amp;lt;Attachments&amp;gt;" style="text;strokeColor=none;fillColor=none;align=left;verticalAlign=top;spacingLeft=4;spacingRight=4;overflow=hidden;rotatable=0;points=[[0,0.5],[1,0.5]];portConstraint=eastwest;whiteSpace=wrap;html=1;fontSize=16;" vertex="1" parent="26">
                    <mxGeometry y="338" width="250" height="26" as="geometry"/>
                </mxCell>
                <mxCell id="40" value="" style="line;strokeWidth=1;fillColor=none;align=left;verticalAlign=middle;spacingTop=-1;spacingLeft=3;spacingRight=3;rotatable=0;labelPosition=right;points=[];portConstraint=eastwest;strokeColor=inherit;fontFamily=Helvetica;fontSize=11;fontColor=default;labelBackgroundColor=default;" vertex="1" parent="26">
                    <mxGeometry y="364" width="250" height="8" as="geometry"/>
                </mxCell>
                <mxCell id="41" value="+ getTask(): List&amp;lt;Tasks&amp;gt;" style="text;strokeColor=none;fillColor=none;align=left;verticalAlign=top;spacingLeft=4;spacingRight=4;overflow=hidden;rotatable=0;points=[[0,0.5],[1,0.5]];portConstraint=eastwest;whiteSpace=wrap;html=1;fontSize=16;" vertex="1" parent="26">
                    <mxGeometry y="372" width="250" height="26" as="geometry"/>
                </mxCell>
                <mxCell id="42" value="+ createTask(taskId: string)" style="text;strokeColor=none;fillColor=none;align=left;verticalAlign=top;spacingLeft=4;spacingRight=4;overflow=hidden;rotatable=0;points=[[0,0.5],[1,0.5]];portConstraint=eastwest;whiteSpace=wrap;html=1;fontSize=16;" vertex="1" parent="26">
                    <mxGeometry y="398" width="250" height="26" as="geometry"/>
                </mxCell>
                <mxCell id="43" value="+ updateTask(taskId: string)" style="text;strokeColor=none;fillColor=none;align=left;verticalAlign=top;spacingLeft=4;spacingRight=4;overflow=hidden;rotatable=0;points=[[0,0.5],[1,0.5]];portConstraint=eastwest;whiteSpace=wrap;html=1;fontSize=16;" vertex="1" parent="26">
                    <mxGeometry y="424" width="250" height="26" as="geometry"/>
                </mxCell>
                <mxCell id="44" value="+ deleteTask(taskId: string)" style="text;strokeColor=none;fillColor=none;align=left;verticalAlign=top;spacingLeft=4;spacingRight=4;overflow=hidden;rotatable=0;points=[[0,0.5],[1,0.5]];portConstraint=eastwest;whiteSpace=wrap;html=1;fontSize=16;" vertex="1" parent="26">
                    <mxGeometry y="450" width="250" height="26" as="geometry"/>
                </mxCell>
                <mxCell id="45" value="&lt;div&gt;&lt;i style=&quot;font-weight: normal;&quot;&gt;&amp;lt;&amp;lt;Enums&amp;gt;&amp;gt;&lt;/i&gt;&lt;/div&gt;TaskStatus" style="swimlane;fontStyle=1;childLayout=stackLayout;horizontal=1;startSize=38;horizontalStack=0;resizeParent=1;resizeParentMax=0;resizeLast=0;collapsible=1;marginBottom=0;whiteSpace=wrap;html=1;fontSize=16;" vertex="1" parent="1">
                    <mxGeometry x="-258" y="449" width="157" height="128" as="geometry"/>
                </mxCell>
                <mxCell id="46" value="- In Progress" style="text;strokeColor=none;fillColor=none;align=left;verticalAlign=middle;spacingLeft=4;spacingRight=4;overflow=hidden;points=[[0,0.5],[1,0.5]];portConstraint=eastwest;rotatable=0;whiteSpace=wrap;html=1;fontSize=16;" vertex="1" parent="45">
                    <mxGeometry y="38" width="157" height="30" as="geometry"/>
                </mxCell>
                <mxCell id="47" value="- Completed" style="text;strokeColor=none;fillColor=none;align=left;verticalAlign=middle;spacingLeft=4;spacingRight=4;overflow=hidden;points=[[0,0.5],[1,0.5]];portConstraint=eastwest;rotatable=0;whiteSpace=wrap;html=1;fontSize=16;" vertex="1" parent="45">
                    <mxGeometry y="68" width="157" height="30" as="geometry"/>
                </mxCell>
                <mxCell id="48" value="- Not Started" style="text;strokeColor=none;fillColor=none;align=left;verticalAlign=middle;spacingLeft=4;spacingRight=4;overflow=hidden;points=[[0,0.5],[1,0.5]];portConstraint=eastwest;rotatable=0;whiteSpace=wrap;html=1;fontSize=16;" vertex="1" parent="45">
                    <mxGeometry y="98" width="157" height="30" as="geometry"/>
                </mxCell>
                <mxCell id="49" style="edgeStyle=orthogonalEdgeStyle;rounded=1;orthogonalLoop=1;jettySize=auto;html=1;entryX=0.5;entryY=0;entryDx=0;entryDy=0;endArrow=ERone;endFill=0;startArrow=ERone;startFill=0;fontSize=16;curved=0;strokeWidth=3;strokeColor=default;align=center;verticalAlign=middle;fontFamily=Helvetica;fontColor=default;labelBackgroundColor=default;startSize=12;endSize=12;" edge="1" parent="1" source="31" target="45">
                    <mxGeometry relative="1" as="geometry"/>
                </mxCell>
                <mxCell id="50" value="has" style="edgeLabel;html=1;align=center;verticalAlign=middle;resizable=0;points=[];fontSize=16;rounded=1;strokeColor=default;strokeWidth=3;fontFamily=Helvetica;fontColor=default;labelBackgroundColor=default;" connectable="0" vertex="1" parent="49">
                    <mxGeometry x="-0.1553" y="-2" relative="1" as="geometry">
                        <mxPoint as="offset"/>
                    </mxGeometry>
                </mxCell>
                <mxCell id="51" value="" style="edgeStyle=orthogonalEdgeStyle;shape=connector;curved=0;rounded=1;html=1;strokeColor=default;strokeWidth=3;align=center;verticalAlign=middle;fontFamily=Helvetica;fontSize=11;fontColor=default;labelBackgroundColor=default;startArrow=ERmany;startFill=0;endArrow=ERmany;endFill=0;" edge="1" parent="1" source="53" target="130">
                    <mxGeometry relative="1" as="geometry"/>
                </mxCell>
                <mxCell id="52" value="&lt;font style=&quot;font-size: 16px;&quot;&gt;&lt;b&gt;Contain&lt;/b&gt;&lt;/font&gt;" style="edgeLabel;html=1;align=center;verticalAlign=middle;resizable=0;points=[];fontFamily=Helvetica;fontSize=11;fontColor=default;labelBackgroundColor=default;" vertex="1" connectable="0" parent="51">
                    <mxGeometry x="-0.0074" y="-3" relative="1" as="geometry">
                        <mxPoint as="offset"/>
                    </mxGeometry>
                </mxCell>
                <mxCell id="53" value="Calendar" style="swimlane;fontStyle=1;childLayout=stackLayout;horizontal=1;startSize=26;fillColor=none;horizontalStack=0;resizeParent=1;resizeParentMax=0;resizeLast=0;collapsible=1;marginBottom=0;whiteSpace=wrap;html=1;fontSize=16;" vertex="1" parent="1">
                    <mxGeometry x="1353" y="151" width="263" height="346" as="geometry"/>
                </mxCell>
                <mxCell id="54" value="&lt;span style=&quot;white-space-collapse: preserve;&quot;&gt;- calendarId: UUID&lt;/span&gt;" style="text;strokeColor=none;fillColor=none;align=left;verticalAlign=top;spacingLeft=4;spacingRight=4;overflow=hidden;rotatable=0;points=[[0,0.5],[1,0.5]];portConstraint=eastwest;whiteSpace=wrap;html=1;fontSize=16;" vertex="1" parent="53">
                    <mxGeometry y="26" width="263" height="26" as="geometry"/>
                </mxCell>
                <mxCell id="55" value="&lt;span style=&quot;white-space-collapse: preserve;&quot;&gt;- startDate: datetime&lt;/span&gt;" style="text;strokeColor=none;fillColor=none;align=left;verticalAlign=top;spacingLeft=4;spacingRight=4;overflow=hidden;rotatable=0;points=[[0,0.5],[1,0.5]];portConstraint=eastwest;whiteSpace=wrap;html=1;fontSize=16;" vertex="1" parent="53">
                    <mxGeometry y="52" width="263" height="26" as="geometry"/>
                </mxCell>
                <mxCell id="56" value="- endDate: datetime" style="text;strokeColor=none;fillColor=none;align=left;verticalAlign=top;spacingLeft=4;spacingRight=4;overflow=hidden;rotatable=0;points=[[0,0.5],[1,0.5]];portConstraint=eastwest;whiteSpace=wrap;html=1;fontSize=16;" vertex="1" parent="53">
                    <mxGeometry y="78" width="263" height="26" as="geometry"/>
                </mxCell>
                <mxCell id="57" value="- isShared: boolean" style="text;strokeColor=none;fillColor=none;align=left;verticalAlign=top;spacingLeft=4;spacingRight=4;overflow=hidden;rotatable=0;points=[[0,0.5],[1,0.5]];portConstraint=eastwest;whiteSpace=wrap;html=1;fontSize=16;" vertex="1" parent="53">
                    <mxGeometry y="104" width="263" height="26" as="geometry"/>
                </mxCell>
                <mxCell id="58" value="- isPermission: boolean" style="text;strokeColor=none;fillColor=none;align=left;verticalAlign=top;spacingLeft=4;spacingRight=4;overflow=hidden;rotatable=0;points=[[0,0.5],[1,0.5]];portConstraint=eastwest;whiteSpace=wrap;html=1;fontSize=16;" vertex="1" parent="53">
                    <mxGeometry y="130" width="263" height="26" as="geometry"/>
                </mxCell>
                <mxCell id="59" value="- colorCode: string" style="text;strokeColor=none;fillColor=none;align=left;verticalAlign=top;spacingLeft=4;spacingRight=4;overflow=hidden;rotatable=0;points=[[0,0.5],[1,0.5]];portConstraint=eastwest;whiteSpace=wrap;html=1;fontSize=16;" vertex="1" parent="53">
                    <mxGeometry y="156" width="263" height="26" as="geometry"/>
                </mxCell>
                <mxCell id="60" value="- viewType: ViewType" style="text;strokeColor=none;fillColor=none;align=left;verticalAlign=top;spacingLeft=4;spacingRight=4;overflow=hidden;rotatable=0;points=[[0,0.5],[1,0.5]];portConstraint=eastwest;whiteSpace=wrap;html=1;fontSize=16;" vertex="1" parent="53">
                    <mxGeometry y="182" width="263" height="26" as="geometry"/>
                </mxCell>
                <mxCell id="61" value="" style="line;strokeWidth=1;fillColor=none;align=left;verticalAlign=middle;spacingTop=-1;spacingLeft=3;spacingRight=3;rotatable=0;labelPosition=right;points=[];portConstraint=eastwest;strokeColor=inherit;fontFamily=Helvetica;fontSize=11;fontColor=default;labelBackgroundColor=default;" vertex="1" parent="53">
                    <mxGeometry y="208" width="263" height="8" as="geometry"/>
                </mxCell>
                <mxCell id="62" value="+ createEvent(event: Event)" style="text;strokeColor=none;fillColor=none;align=left;verticalAlign=top;spacingLeft=4;spacingRight=4;overflow=hidden;rotatable=0;points=[[0,0.5],[1,0.5]];portConstraint=eastwest;whiteSpace=wrap;html=1;fontSize=16;" vertex="1" parent="53">
                    <mxGeometry y="216" width="263" height="26" as="geometry"/>
                </mxCell>
                <mxCell id="63" value="+ getEvent(): List&amp;lt;Events&amp;gt;" style="text;strokeColor=none;fillColor=none;align=left;verticalAlign=top;spacingLeft=4;spacingRight=4;overflow=hidden;rotatable=0;points=[[0,0.5],[1,0.5]];portConstraint=eastwest;whiteSpace=wrap;html=1;fontSize=16;" vertex="1" parent="53">
                    <mxGeometry y="242" width="263" height="26" as="geometry"/>
                </mxCell>
                <mxCell id="64" value="+ updateEvent(eventId: string)" style="text;strokeColor=none;fillColor=none;align=left;verticalAlign=top;spacingLeft=4;spacingRight=4;overflow=hidden;rotatable=0;points=[[0,0.5],[1,0.5]];portConstraint=eastwest;whiteSpace=wrap;html=1;fontSize=16;" vertex="1" parent="53">
                    <mxGeometry y="268" width="263" height="26" as="geometry"/>
                </mxCell>
                <mxCell id="65" value="+ deleteEvent(eventId: string)" style="text;strokeColor=none;fillColor=none;align=left;verticalAlign=top;spacingLeft=4;spacingRight=4;overflow=hidden;rotatable=0;points=[[0,0.5],[1,0.5]];portConstraint=eastwest;whiteSpace=wrap;html=1;fontSize=16;" vertex="1" parent="53">
                    <mxGeometry y="294" width="263" height="26" as="geometry"/>
                </mxCell>
                <mxCell id="66" value="+ setView():&amp;nbsp;&lt;span style=&quot;color: rgb(0, 0, 0);&quot;&gt;ViewType&lt;/span&gt;" style="text;strokeColor=none;fillColor=none;align=left;verticalAlign=top;spacingLeft=4;spacingRight=4;overflow=hidden;rotatable=0;points=[[0,0.5],[1,0.5]];portConstraint=eastwest;whiteSpace=wrap;html=1;fontSize=16;" vertex="1" parent="53">
                    <mxGeometry y="320" width="263" height="26" as="geometry"/>
                </mxCell>
                <mxCell id="67" value="&lt;div&gt;&lt;i&gt;&amp;lt;&amp;lt;Enums&amp;gt;&amp;gt;&lt;/i&gt;&lt;/div&gt;&lt;b&gt;ViewType&lt;/b&gt;" style="swimlane;fontStyle=0;childLayout=stackLayout;horizontal=1;startSize=40;horizontalStack=0;resizeParent=1;resizeParentMax=0;resizeLast=0;collapsible=1;marginBottom=0;whiteSpace=wrap;html=1;fontSize=16;" vertex="1" parent="1">
                    <mxGeometry x="1793" y="182" width="140" height="156" as="geometry"/>
                </mxCell>
                <mxCell id="68" value="Daily" style="text;strokeColor=none;fillColor=none;align=left;verticalAlign=middle;spacingLeft=4;spacingRight=4;overflow=hidden;rotatable=0;points=[[0,0.5],[1,0.5]];portConstraint=eastwest;rotatable=0;whiteSpace=wrap;html=1;fontSize=16;" vertex="1" parent="67">
                    <mxGeometry y="40" width="140" height="30" as="geometry"/>
                </mxCell>
                <mxCell id="69" value="Weekly" style="text;strokeColor=none;fillColor=none;align=left;verticalAlign=middle;spacingLeft=4;spacingRight=4;overflow=hidden;rotatable=0;points=[[0,0.5],[1,0.5]];portConstraint=eastwest;rotatable=0;whiteSpace=wrap;html=1;fontSize=16;" vertex="1" parent="67">
                    <mxGeometry y="70" width="140" height="30" as="geometry"/>
                </mxCell>
                <mxCell id="70" value="Monthly" style="text;strokeColor=none;fillColor=none;align=left;verticalAlign=middle;spacingLeft=4;spacingRight=4;overflow=hidden;rotatable=0;points=[[0,0.5],[1,0.5]];portConstraint=eastwest;rotatable=0;whiteSpace=wrap;html=1;fontSize=16;" vertex="1" parent="67">
                    <mxGeometry y="100" width="140" height="30" as="geometry"/>
                </mxCell>
                <mxCell id="71" value="Agenda" style="text;strokeColor=none;fillColor=none;align=left;verticalAlign=top;spacingLeft=4;spacingRight=4;overflow=hidden;rotatable=0;points=[[0,0.5],[1,0.5]];portConstraint=eastwest;whiteSpace=wrap;html=1;fontSize=16;" vertex="1" parent="67">
                    <mxGeometry y="130" width="140" height="26" as="geometry"/>
                </mxCell>
                <mxCell id="72" style="edgeStyle=orthogonalEdgeStyle;rounded=1;orthogonalLoop=1;jettySize=auto;html=1;entryX=0.02;entryY=0.223;entryDx=0;entryDy=0;endArrow=ERone;endFill=0;startArrow=ERmany;startFill=0;fontSize=16;strokeColor=default;strokeWidth=3;align=center;verticalAlign=middle;fontFamily=Helvetica;fontColor=default;labelBackgroundColor=default;startSize=12;endSize=12;curved=0;entryPerimeter=0;" edge="1" parent="1" source="56" target="67">
                    <mxGeometry relative="1" as="geometry"/>
                </mxCell>
                <mxCell id="73" value="has" style="edgeLabel;html=1;align=center;verticalAlign=middle;resizable=0;points=[];fontSize=16;rounded=1;strokeColor=default;strokeWidth=3;fontFamily=Helvetica;fontColor=default;labelBackgroundColor=default;fontStyle=1" connectable="0" vertex="1" parent="72">
                    <mxGeometry x="0.1187" relative="1" as="geometry">
                        <mxPoint as="offset"/>
                    </mxGeometry>
                </mxCell>
                <mxCell id="74" style="edgeStyle=orthogonalEdgeStyle;shape=connector;curved=0;rounded=1;html=1;entryX=0.5;entryY=0;entryDx=0;entryDy=0;strokeColor=default;strokeWidth=3;align=center;verticalAlign=middle;fontFamily=Helvetica;fontSize=11;fontColor=default;labelBackgroundColor=default;startArrow=ERone;startFill=0;endArrow=ERone;endFill=0;" edge="1" parent="1" source="76" target="8">
                    <mxGeometry relative="1" as="geometry"/>
                </mxCell>
                <mxCell id="75" value="&lt;span style=&quot;font-size: 16px;&quot;&gt;&lt;b&gt;Create&lt;/b&gt;&lt;/span&gt;" style="edgeLabel;html=1;align=center;verticalAlign=middle;resizable=0;points=[];fontFamily=Helvetica;fontSize=11;fontColor=default;labelBackgroundColor=default;" vertex="1" connectable="0" parent="74">
                    <mxGeometry x="0.3113" y="3" relative="1" as="geometry">
                        <mxPoint x="-85" y="3" as="offset"/>
                    </mxGeometry>
                </mxCell>
                <mxCell id="76" value="&lt;b&gt;Project&lt;/b&gt;" style="swimlane;fontStyle=0;childLayout=stackLayout;horizontal=1;startSize=26;fillColor=none;horizontalStack=0;resizeParent=1;resizeParentMax=0;resizeLast=0;collapsible=1;marginBottom=0;whiteSpace=wrap;html=1;fontSize=16;" vertex="1" parent="1">
                    <mxGeometry x="959" y="467" width="286" height="398" as="geometry"/>
                </mxCell>
                <mxCell id="77" value="- projectId: UUID" style="text;strokeColor=none;fillColor=none;align=left;verticalAlign=top;spacingLeft=4;spacingRight=4;overflow=hidden;rotatable=0;points=[[0,0.5],[1,0.5]];portConstraint=eastwest;whiteSpace=wrap;html=1;fontSize=16;" vertex="1" parent="76">
                    <mxGeometry y="26" width="286" height="26" as="geometry"/>
                </mxCell>
                <mxCell id="78" value="- name: string" style="text;strokeColor=none;fillColor=none;align=left;verticalAlign=top;spacingLeft=4;spacingRight=4;overflow=hidden;rotatable=0;points=[[0,0.5],[1,0.5]];portConstraint=eastwest;whiteSpace=wrap;html=1;fontSize=16;" vertex="1" parent="76">
                    <mxGeometry y="52" width="286" height="26" as="geometry"/>
                </mxCell>
                <mxCell id="79" value="- description: string" style="text;strokeColor=none;fillColor=none;align=left;verticalAlign=top;spacingLeft=4;spacingRight=4;overflow=hidden;rotatable=0;points=[[0,0.5],[1,0.5]];portConstraint=eastwest;whiteSpace=wrap;html=1;fontSize=16;" vertex="1" parent="76">
                    <mxGeometry y="78" width="286" height="26" as="geometry"/>
                </mxCell>
                <mxCell id="80" value="- startDate: datetime" style="text;strokeColor=none;fillColor=none;align=left;verticalAlign=top;spacingLeft=4;spacingRight=4;overflow=hidden;rotatable=0;points=[[0,0.5],[1,0.5]];portConstraint=eastwest;whiteSpace=wrap;html=1;fontSize=16;" vertex="1" parent="76">
                    <mxGeometry y="104" width="286" height="26" as="geometry"/>
                </mxCell>
                <mxCell id="81" value="- endDate: datetime" style="text;strokeColor=none;fillColor=none;align=left;verticalAlign=top;spacingLeft=4;spacingRight=4;overflow=hidden;rotatable=0;points=[[0,0.5],[1,0.5]];portConstraint=eastwest;whiteSpace=wrap;html=1;fontSize=16;" vertex="1" parent="76">
                    <mxGeometry y="130" width="286" height="26" as="geometry"/>
                </mxCell>
                <mxCell id="82" value="- status: ProjectStatus" style="text;strokeColor=none;fillColor=none;align=left;verticalAlign=top;spacingLeft=4;spacingRight=4;overflow=hidden;rotatable=0;points=[[0,0.5],[1,0.5]];portConstraint=eastwest;whiteSpace=wrap;html=1;fontSize=16;" vertex="1" parent="76">
                    <mxGeometry y="156" width="286" height="26" as="geometry"/>
                </mxCell>
                <mxCell id="83" value="- progress: float" style="text;strokeColor=none;fillColor=none;align=left;verticalAlign=top;spacingLeft=4;spacingRight=4;overflow=hidden;rotatable=0;points=[[0,0.5],[1,0.5]];portConstraint=eastwest;whiteSpace=wrap;html=1;fontSize=16;" vertex="1" parent="76">
                    <mxGeometry y="182" width="286" height="26" as="geometry"/>
                </mxCell>
                <mxCell id="84" value="- budget: decimal" style="text;strokeColor=none;fillColor=none;align=left;verticalAlign=top;spacingLeft=4;spacingRight=4;overflow=hidden;rotatable=0;points=[[0,0.5],[1,0.5]];portConstraint=eastwest;whiteSpace=wrap;html=1;fontSize=16;" vertex="1" parent="76">
                    <mxGeometry y="208" width="286" height="26" as="geometry"/>
                </mxCell>
                <mxCell id="85" value="- createAt: datetime" style="text;strokeColor=none;fillColor=none;align=left;verticalAlign=top;spacingLeft=4;spacingRight=4;overflow=hidden;rotatable=0;points=[[0,0.5],[1,0.5]];portConstraint=eastwest;whiteSpace=wrap;html=1;fontSize=16;" vertex="1" parent="76">
                    <mxGeometry y="234" width="286" height="26" as="geometry"/>
                </mxCell>
                <mxCell id="86" value="- updateAt: datetime" style="text;strokeColor=none;fillColor=none;align=left;verticalAlign=top;spacingLeft=4;spacingRight=4;overflow=hidden;rotatable=0;points=[[0,0.5],[1,0.5]];portConstraint=eastwest;whiteSpace=wrap;html=1;fontSize=16;" vertex="1" parent="76">
                    <mxGeometry y="260" width="286" height="26" as="geometry"/>
                </mxCell>
                <mxCell id="87" value="" style="line;strokeWidth=1;fillColor=none;align=left;verticalAlign=middle;spacingTop=-1;spacingLeft=3;spacingRight=3;rotatable=0;labelPosition=right;points=[];portConstraint=eastwest;strokeColor=inherit;fontFamily=Helvetica;fontSize=11;fontColor=default;labelBackgroundColor=default;" vertex="1" parent="76">
                    <mxGeometry y="286" width="286" height="8" as="geometry"/>
                </mxCell>
                <mxCell id="88" value="+ createProject(projectName: string)" style="text;strokeColor=none;fillColor=none;align=left;verticalAlign=top;spacingLeft=4;spacingRight=4;overflow=hidden;rotatable=0;points=[[0,0.5],[1,0.5]];portConstraint=eastwest;whiteSpace=wrap;html=1;fontSize=16;" vertex="1" parent="76">
                    <mxGeometry y="294" width="286" height="26" as="geometry"/>
                </mxCell>
                <mxCell id="89" value="+ updateProject(projectId: string)" style="text;strokeColor=none;fillColor=none;align=left;verticalAlign=top;spacingLeft=4;spacingRight=4;overflow=hidden;rotatable=0;points=[[0,0.5],[1,0.5]];portConstraint=eastwest;whiteSpace=wrap;html=1;fontSize=16;" vertex="1" parent="76">
                    <mxGeometry y="320" width="286" height="26" as="geometry"/>
                </mxCell>
                <mxCell id="90" value="+ deleteProject(projectId: string)" style="text;strokeColor=none;fillColor=none;align=left;verticalAlign=top;spacingLeft=4;spacingRight=4;overflow=hidden;rotatable=0;points=[[0,0.5],[1,0.5]];portConstraint=eastwest;whiteSpace=wrap;html=1;fontSize=16;" vertex="1" parent="76">
                    <mxGeometry y="346" width="286" height="26" as="geometry"/>
                </mxCell>
                <mxCell id="91" value="+ getProject(): List&amp;lt;Projects&amp;gt;" style="text;strokeColor=none;fillColor=none;align=left;verticalAlign=top;spacingLeft=4;spacingRight=4;overflow=hidden;rotatable=0;points=[[0,0.5],[1,0.5]];portConstraint=eastwest;whiteSpace=wrap;html=1;fontSize=16;" vertex="1" parent="76">
                    <mxGeometry y="372" width="286" height="26" as="geometry"/>
                </mxCell>
                <mxCell id="92" value="&lt;i&gt;&amp;lt;&amp;lt;Enums&amp;gt;&amp;gt;&lt;/i&gt;&lt;div&gt;&lt;b&gt;ProjectStatus&lt;/b&gt;&lt;/div&gt;" style="swimlane;fontStyle=0;childLayout=stackLayout;horizontal=1;startSize=44;fillColor=none;horizontalStack=0;resizeParent=1;resizeParentMax=0;resizeLast=0;collapsible=1;marginBottom=0;whiteSpace=wrap;html=1;fontSize=16;" vertex="1" parent="1">
                    <mxGeometry x="719" y="393" width="140" height="148" as="geometry"/>
                </mxCell>
                <mxCell id="93" value="Planning" style="text;strokeColor=none;fillColor=none;align=left;verticalAlign=top;spacingLeft=4;spacingRight=4;overflow=hidden;rotatable=0;points=[[0,0.5],[1,0.5]];portConstraint=eastwest;whiteSpace=wrap;html=1;fontSize=16;" vertex="1" parent="92">
                    <mxGeometry y="44" width="140" height="26" as="geometry"/>
                </mxCell>
                <mxCell id="94" value="In Progress" style="text;strokeColor=none;fillColor=none;align=left;verticalAlign=top;spacingLeft=4;spacingRight=4;overflow=hidden;rotatable=0;points=[[0,0.5],[1,0.5]];portConstraint=eastwest;whiteSpace=wrap;html=1;fontSize=16;" vertex="1" parent="92">
                    <mxGeometry y="70" width="140" height="26" as="geometry"/>
                </mxCell>
                <mxCell id="95" value="Completed" style="text;strokeColor=none;fillColor=none;align=left;verticalAlign=top;spacingLeft=4;spacingRight=4;overflow=hidden;rotatable=0;points=[[0,0.5],[1,0.5]];portConstraint=eastwest;whiteSpace=wrap;html=1;fontSize=16;" vertex="1" parent="92">
                    <mxGeometry y="96" width="140" height="26" as="geometry"/>
                </mxCell>
                <mxCell id="96" value="Canceled" style="text;strokeColor=none;fillColor=none;align=left;verticalAlign=top;spacingLeft=4;spacingRight=4;overflow=hidden;rotatable=0;points=[[0,0.5],[1,0.5]];portConstraint=eastwest;whiteSpace=wrap;html=1;fontSize=16;" vertex="1" parent="92">
                    <mxGeometry y="122" width="140" height="26" as="geometry"/>
                </mxCell>
                <mxCell id="97" style="edgeStyle=orthogonalEdgeStyle;rounded=1;orthogonalLoop=1;jettySize=auto;html=1;entryX=1.001;entryY=0.088;entryDx=0;entryDy=0;entryPerimeter=0;fontSize=16;strokeColor=default;strokeWidth=3;align=center;verticalAlign=middle;fontFamily=Helvetica;fontColor=default;labelBackgroundColor=default;startArrow=ERone;startFill=0;endArrow=ERone;endFill=0;curved=0;endSize=12;startSize=12;" edge="1" parent="1" source="82" target="92">
                    <mxGeometry relative="1" as="geometry"/>
                </mxCell>
                <mxCell id="98" value="Comment" style="swimlane;fontStyle=1;childLayout=stackLayout;horizontal=1;startSize=26;fillColor=none;horizontalStack=0;resizeParent=1;resizeParentMax=0;resizeLast=0;collapsible=1;marginBottom=0;whiteSpace=wrap;html=1;fontSize=16;" vertex="1" parent="1">
                    <mxGeometry x="131" y="1046" width="162" height="242" as="geometry"/>
                </mxCell>
                <mxCell id="99" value="- commentId: UUID" style="text;strokeColor=none;fillColor=none;align=left;verticalAlign=top;spacingLeft=4;spacingRight=4;overflow=hidden;rotatable=0;points=[[0,0.5],[1,0.5]];portConstraint=eastwest;whiteSpace=wrap;html=1;fontSize=16;" vertex="1" parent="98">
                    <mxGeometry y="26" width="162" height="26" as="geometry"/>
                </mxCell>
                <mxCell id="100" value="- text: string" style="text;strokeColor=none;fillColor=none;align=left;verticalAlign=top;spacingLeft=4;spacingRight=4;overflow=hidden;rotatable=0;points=[[0,0.5],[1,0.5]];portConstraint=eastwest;whiteSpace=wrap;html=1;fontSize=16;" vertex="1" parent="98">
                    <mxGeometry y="52" width="162" height="26" as="geometry"/>
                </mxCell>
                <mxCell id="101" value="- createdAt: datetime" style="text;strokeColor=none;fillColor=none;align=left;verticalAlign=top;spacingLeft=4;spacingRight=4;overflow=hidden;rotatable=0;points=[[0,0.5],[1,0.5]];portConstraint=eastwest;whiteSpace=wrap;html=1;fontSize=16;" vertex="1" parent="98">
                    <mxGeometry y="78" width="162" height="26" as="geometry"/>
                </mxCell>
                <mxCell id="102" value="- userId: UUID" style="text;strokeColor=none;fillColor=none;align=left;verticalAlign=top;spacingLeft=4;spacingRight=4;overflow=hidden;rotatable=0;points=[[0,0.5],[1,0.5]];portConstraint=eastwest;whiteSpace=wrap;html=1;fontSize=16;" vertex="1" parent="98">
                    <mxGeometry y="104" width="162" height="26" as="geometry"/>
                </mxCell>
                <mxCell id="103" value="- taskId: UUID" style="text;strokeColor=none;fillColor=none;align=left;verticalAlign=top;spacingLeft=4;spacingRight=4;overflow=hidden;rotatable=0;points=[[0,0.5],[1,0.5]];portConstraint=eastwest;whiteSpace=wrap;html=1;fontSize=16;" vertex="1" parent="98">
                    <mxGeometry y="130" width="162" height="26" as="geometry"/>
                </mxCell>
                <mxCell id="104" value="" style="line;strokeWidth=1;fillColor=none;align=left;verticalAlign=middle;spacingTop=-1;spacingLeft=3;spacingRight=3;rotatable=0;labelPosition=right;points=[];portConstraint=eastwest;strokeColor=inherit;fontFamily=Helvetica;fontSize=11;fontColor=default;labelBackgroundColor=default;" vertex="1" parent="98">
                    <mxGeometry y="156" width="162" height="8" as="geometry"/>
                </mxCell>
                <mxCell id="105" value="+ addComment()" style="text;strokeColor=none;fillColor=none;align=left;verticalAlign=top;spacingLeft=4;spacingRight=4;overflow=hidden;rotatable=0;points=[[0,0.5],[1,0.5]];portConstraint=eastwest;whiteSpace=wrap;html=1;fontSize=16;" vertex="1" parent="98">
                    <mxGeometry y="164" width="162" height="26" as="geometry"/>
                </mxCell>
                <mxCell id="106" value="+ removeComment()" style="text;strokeColor=none;fillColor=none;align=left;verticalAlign=top;spacingLeft=4;spacingRight=4;overflow=hidden;rotatable=0;points=[[0,0.5],[1,0.5]];portConstraint=eastwest;whiteSpace=wrap;html=1;fontSize=16;" vertex="1" parent="98">
                    <mxGeometry y="190" width="162" height="26" as="geometry"/>
                </mxCell>
                <mxCell id="107" value="+ updateComment()" style="text;strokeColor=none;fillColor=none;align=left;verticalAlign=top;spacingLeft=4;spacingRight=4;overflow=hidden;rotatable=0;points=[[0,0.5],[1,0.5]];portConstraint=eastwest;whiteSpace=wrap;html=1;fontSize=16;" vertex="1" parent="98">
                    <mxGeometry y="216" width="162" height="26" as="geometry"/>
                </mxCell>
                <mxCell id="108" value="Attachment" style="swimlane;fontStyle=1;childLayout=stackLayout;horizontal=1;startSize=26;fillColor=none;horizontalStack=0;resizeParent=1;resizeParentMax=0;resizeLast=0;collapsible=1;marginBottom=0;whiteSpace=wrap;html=1;fontSize=16;" vertex="1" parent="1">
                    <mxGeometry x="-96" y="1313" width="216" height="294" as="geometry"/>
                </mxCell>
                <mxCell id="109" value="- attachmentId: UUID" style="text;strokeColor=none;fillColor=none;align=left;verticalAlign=top;spacingLeft=4;spacingRight=4;overflow=hidden;rotatable=0;points=[[0,0.5],[1,0.5]];portConstraint=eastwest;whiteSpace=wrap;html=1;fontSize=16;" vertex="1" parent="108">
                    <mxGeometry y="26" width="216" height="26" as="geometry"/>
                </mxCell>
                <mxCell id="110" value="- fileName: string" style="text;strokeColor=none;fillColor=none;align=left;verticalAlign=top;spacingLeft=4;spacingRight=4;overflow=hidden;rotatable=0;points=[[0,0.5],[1,0.5]];portConstraint=eastwest;whiteSpace=wrap;html=1;fontSize=16;" vertex="1" parent="108">
                    <mxGeometry y="52" width="216" height="26" as="geometry"/>
                </mxCell>
                <mxCell id="111" value="- fileType: string" style="text;strokeColor=none;fillColor=none;align=left;verticalAlign=top;spacingLeft=4;spacingRight=4;overflow=hidden;rotatable=0;points=[[0,0.5],[1,0.5]];portConstraint=eastwest;whiteSpace=wrap;html=1;fontSize=16;" vertex="1" parent="108">
                    <mxGeometry y="78" width="216" height="26" as="geometry"/>
                </mxCell>
                <mxCell id="112" value="- fileSize: int" style="text;strokeColor=none;fillColor=none;align=left;verticalAlign=top;spacingLeft=4;spacingRight=4;overflow=hidden;rotatable=0;points=[[0,0.5],[1,0.5]];portConstraint=eastwest;whiteSpace=wrap;html=1;fontSize=16;" vertex="1" parent="108">
                    <mxGeometry y="104" width="216" height="26" as="geometry"/>
                </mxCell>
                <mxCell id="113" value="- uploadDate: datetime" style="text;strokeColor=none;fillColor=none;align=left;verticalAlign=top;spacingLeft=4;spacingRight=4;overflow=hidden;rotatable=0;points=[[0,0.5],[1,0.5]];portConstraint=eastwest;whiteSpace=wrap;html=1;fontSize=16;" vertex="1" parent="108">
                    <mxGeometry y="130" width="216" height="26" as="geometry"/>
                </mxCell>
                <mxCell id="114" value="- taskId: UUID" style="text;strokeColor=none;fillColor=none;align=left;verticalAlign=top;spacingLeft=4;spacingRight=4;overflow=hidden;rotatable=0;points=[[0,0.5],[1,0.5]];portConstraint=eastwest;whiteSpace=wrap;html=1;fontSize=16;" vertex="1" parent="108">
                    <mxGeometry y="156" width="216" height="26" as="geometry"/>
                </mxCell>
                <mxCell id="115" value="" style="line;strokeWidth=1;fillColor=none;align=left;verticalAlign=middle;spacingTop=-1;spacingLeft=3;spacingRight=3;rotatable=0;labelPosition=right;points=[];portConstraint=eastwest;strokeColor=inherit;fontFamily=Helvetica;fontSize=11;fontColor=default;labelBackgroundColor=default;" vertex="1" parent="108">
                    <mxGeometry y="182" width="216" height="8" as="geometry"/>
                </mxCell>
                <mxCell id="116" value="+ getFileName()" style="text;strokeColor=none;fillColor=none;align=left;verticalAlign=top;spacingLeft=4;spacingRight=4;overflow=hidden;rotatable=0;points=[[0,0.5],[1,0.5]];portConstraint=eastwest;whiteSpace=wrap;html=1;fontSize=16;" vertex="1" parent="108">
                    <mxGeometry y="190" width="216" height="26" as="geometry"/>
                </mxCell>
                <mxCell id="117" value="+ getFileType()" style="text;strokeColor=none;fillColor=none;align=left;verticalAlign=top;spacingLeft=4;spacingRight=4;overflow=hidden;rotatable=0;points=[[0,0.5],[1,0.5]];portConstraint=eastwest;whiteSpace=wrap;html=1;fontSize=16;" vertex="1" parent="108">
                    <mxGeometry y="216" width="216" height="26" as="geometry"/>
                </mxCell>
                <mxCell id="118" value="+ addAttachment()" style="text;strokeColor=none;fillColor=none;align=left;verticalAlign=top;spacingLeft=4;spacingRight=4;overflow=hidden;rotatable=0;points=[[0,0.5],[1,0.5]];portConstraint=eastwest;whiteSpace=wrap;html=1;fontSize=16;" vertex="1" parent="108">
                    <mxGeometry y="242" width="216" height="26" as="geometry"/>
                </mxCell>
                <mxCell id="119" value="+ deleteAttachment()" style="text;strokeColor=none;fillColor=none;align=left;verticalAlign=top;spacingLeft=4;spacingRight=4;overflow=hidden;rotatable=0;points=[[0,0.5],[1,0.5]];portConstraint=eastwest;whiteSpace=wrap;html=1;fontSize=16;" vertex="1" parent="108">
                    <mxGeometry y="268" width="216" height="26" as="geometry"/>
                </mxCell>
                <mxCell id="120" value="Event" style="swimlane;fontStyle=1;childLayout=stackLayout;horizontal=1;startSize=26;fillColor=none;horizontalStack=0;resizeParent=1;resizeParentMax=0;resizeLast=0;collapsible=1;marginBottom=0;whiteSpace=wrap;html=1;fontSize=16;" vertex="1" parent="1">
                    <mxGeometry x="1075" y="-276" width="238" height="424" as="geometry"/>
                </mxCell>
                <mxCell id="121" value="- eventId: UUID" style="text;strokeColor=none;fillColor=none;align=left;verticalAlign=top;spacingLeft=4;spacingRight=4;overflow=hidden;rotatable=0;points=[[0,0.5],[1,0.5]];portConstraint=eastwest;whiteSpace=wrap;html=1;fontSize=16;" vertex="1" parent="120">
                    <mxGeometry y="26" width="238" height="26" as="geometry"/>
                </mxCell>
                <mxCell id="122" value="- title: string" style="text;strokeColor=none;fillColor=none;align=left;verticalAlign=top;spacingLeft=4;spacingRight=4;overflow=hidden;rotatable=0;points=[[0,0.5],[1,0.5]];portConstraint=eastwest;whiteSpace=wrap;html=1;fontSize=16;" vertex="1" parent="120">
                    <mxGeometry y="52" width="238" height="26" as="geometry"/>
                </mxCell>
                <mxCell id="123" value="- description: string" style="text;strokeColor=none;fillColor=none;align=left;verticalAlign=top;spacingLeft=4;spacingRight=4;overflow=hidden;rotatable=0;points=[[0,0.5],[1,0.5]];portConstraint=eastwest;whiteSpace=wrap;html=1;fontSize=16;" vertex="1" parent="120">
                    <mxGeometry y="78" width="238" height="26" as="geometry"/>
                </mxCell>
                <mxCell id="124" value="- startDate: datetime" style="text;strokeColor=none;fillColor=none;align=left;verticalAlign=top;spacingLeft=4;spacingRight=4;overflow=hidden;rotatable=0;points=[[0,0.5],[1,0.5]];portConstraint=eastwest;whiteSpace=wrap;html=1;fontSize=16;" vertex="1" parent="120">
                    <mxGeometry y="104" width="238" height="26" as="geometry"/>
                </mxCell>
                <mxCell id="125" value="- endDate: datetime" style="text;strokeColor=none;fillColor=none;align=left;verticalAlign=top;spacingLeft=4;spacingRight=4;overflow=hidden;rotatable=0;points=[[0,0.5],[1,0.5]];portConstraint=eastwest;whiteSpace=wrap;html=1;fontSize=16;" vertex="1" parent="120">
                    <mxGeometry y="130" width="238" height="26" as="geometry"/>
                </mxCell>
                <mxCell id="126" value="- location: string" style="text;strokeColor=none;fillColor=none;align=left;verticalAlign=top;spacingLeft=4;spacingRight=4;overflow=hidden;rotatable=0;points=[[0,0.5],[1,0.5]];portConstraint=eastwest;whiteSpace=wrap;html=1;fontSize=16;" vertex="1" parent="120">
                    <mxGeometry y="156" width="238" height="26" as="geometry"/>
                </mxCell>
                <mxCell id="127" value="- isRecurring: boolean" style="text;strokeColor=none;fillColor=none;align=left;verticalAlign=top;spacingLeft=4;spacingRight=4;overflow=hidden;rotatable=0;points=[[0,0.5],[1,0.5]];portConstraint=eastwest;whiteSpace=wrap;html=1;fontSize=16;" vertex="1" parent="120">
                    <mxGeometry y="182" width="238" height="26" as="geometry"/>
                </mxCell>
                <mxCell id="128" value="- colorCode: string" style="text;strokeColor=none;fillColor=none;align=left;verticalAlign=top;spacingLeft=4;spacingRight=4;overflow=hidden;rotatable=0;points=[[0,0.5],[1,0.5]];portConstraint=eastwest;whiteSpace=wrap;html=1;fontSize=16;" vertex="1" parent="120">
                    <mxGeometry y="208" width="238" height="26" as="geometry"/>
                </mxCell>
                <mxCell id="129" value="- reminderTime: datetime" style="text;strokeColor=none;fillColor=none;align=left;verticalAlign=top;spacingLeft=4;spacingRight=4;overflow=hidden;rotatable=0;points=[[0,0.5],[1,0.5]];portConstraint=eastwest;whiteSpace=wrap;html=1;fontSize=16;" vertex="1" parent="120">
                    <mxGeometry y="234" width="238" height="26" as="geometry"/>
                </mxCell>
                <mxCell id="130" value="- projectId: UUID (nullable)" style="text;strokeColor=none;fillColor=none;align=left;verticalAlign=top;spacingLeft=4;spacingRight=4;overflow=hidden;rotatable=0;points=[[0,0.5],[1,0.5]];portConstraint=eastwest;whiteSpace=wrap;html=1;fontSize=16;" vertex="1" parent="120">
                    <mxGeometry y="260" width="238" height="26" as="geometry"/>
                </mxCell>
                <mxCell id="131" value="" style="line;strokeWidth=1;fillColor=none;align=left;verticalAlign=middle;spacingTop=-1;spacingLeft=3;spacingRight=3;rotatable=0;labelPosition=right;points=[];portConstraint=eastwest;strokeColor=inherit;fontFamily=Helvetica;fontSize=11;fontColor=default;labelBackgroundColor=default;" vertex="1" parent="120">
                    <mxGeometry y="286" width="238" height="8" as="geometry"/>
                </mxCell>
                <mxCell id="132" value="+ getTitle()" style="text;strokeColor=none;fillColor=none;align=left;verticalAlign=top;spacingLeft=4;spacingRight=4;overflow=hidden;rotatable=0;points=[[0,0.5],[1,0.5]];portConstraint=eastwest;whiteSpace=wrap;html=1;fontSize=16;" vertex="1" parent="120">
                    <mxGeometry y="294" width="238" height="26" as="geometry"/>
                </mxCell>
                <mxCell id="133" value="+ getDescription()" style="text;strokeColor=none;fillColor=none;align=left;verticalAlign=top;spacingLeft=4;spacingRight=4;overflow=hidden;rotatable=0;points=[[0,0.5],[1,0.5]];portConstraint=eastwest;whiteSpace=wrap;html=1;fontSize=16;" vertex="1" parent="120">
                    <mxGeometry y="320" width="238" height="26" as="geometry"/>
                </mxCell>
                <mxCell id="134" value="+ getStartDate()" style="text;strokeColor=none;fillColor=none;align=left;verticalAlign=top;spacingLeft=4;spacingRight=4;overflow=hidden;rotatable=0;points=[[0,0.5],[1,0.5]];portConstraint=eastwest;whiteSpace=wrap;html=1;fontSize=16;" vertex="1" parent="120">
                    <mxGeometry y="346" width="238" height="26" as="geometry"/>
                </mxCell>
                <mxCell id="135" value="+ getEndDate()" style="text;strokeColor=none;fillColor=none;align=left;verticalAlign=top;spacingLeft=4;spacingRight=4;overflow=hidden;rotatable=0;points=[[0,0.5],[1,0.5]];portConstraint=eastwest;whiteSpace=wrap;html=1;fontSize=16;" vertex="1" parent="120">
                    <mxGeometry y="372" width="238" height="26" as="geometry"/>
                </mxCell>
                <mxCell id="136" value="+ getLocation()" style="text;strokeColor=none;fillColor=none;align=left;verticalAlign=top;spacingLeft=4;spacingRight=4;overflow=hidden;rotatable=0;points=[[0,0.5],[1,0.5]];portConstraint=eastwest;whiteSpace=wrap;html=1;fontSize=16;" vertex="1" parent="120">
                    <mxGeometry y="398" width="238" height="26" as="geometry"/>
                </mxCell>
                <mxCell id="137" value="Team" style="swimlane;fontStyle=1;childLayout=stackLayout;horizontal=1;startSize=26;fillColor=none;horizontalStack=0;resizeParent=1;resizeParentMax=0;resizeLast=0;collapsible=1;marginBottom=0;whiteSpace=wrap;html=1;fontSize=16;" vertex="1" parent="1">
                    <mxGeometry x="680" y="664" width="179" height="190" as="geometry"/>
                </mxCell>
                <mxCell id="138" value="- teamId: UUID" style="text;strokeColor=none;fillColor=none;align=left;verticalAlign=top;spacingLeft=4;spacingRight=4;overflow=hidden;rotatable=0;points=[[0,0.5],[1,0.5]];portConstraint=eastwest;whiteSpace=wrap;html=1;fontSize=16;" vertex="1" parent="137">
                    <mxGeometry y="26" width="179" height="26" as="geometry"/>
                </mxCell>
                <mxCell id="139" value="- name: string" style="text;strokeColor=none;fillColor=none;align=left;verticalAlign=top;spacingLeft=4;spacingRight=4;overflow=hidden;rotatable=0;points=[[0,0.5],[1,0.5]];portConstraint=eastwest;whiteSpace=wrap;html=1;fontSize=16;" vertex="1" parent="137">
                    <mxGeometry y="52" width="179" height="26" as="geometry"/>
                </mxCell>
                <mxCell id="140" value="- description: string" style="text;strokeColor=none;fillColor=none;align=left;verticalAlign=top;spacingLeft=4;spacingRight=4;overflow=hidden;rotatable=0;points=[[0,0.5],[1,0.5]];portConstraint=eastwest;whiteSpace=wrap;html=1;fontSize=16;" vertex="1" parent="137">
                    <mxGeometry y="78" width="179" height="26" as="geometry"/>
                </mxCell>
                <mxCell id="141" value="" style="line;strokeWidth=1;fillColor=none;align=left;verticalAlign=middle;spacingTop=-1;spacingLeft=3;spacingRight=3;rotatable=0;labelPosition=right;points=[];portConstraint=eastwest;strokeColor=inherit;fontFamily=Helvetica;fontSize=11;fontColor=default;labelBackgroundColor=default;" vertex="1" parent="137">
                    <mxGeometry y="104" width="179" height="8" as="geometry"/>
                </mxCell>
                <mxCell id="142" value="+ addMember(user: User)" style="text;strokeColor=none;fillColor=none;align=left;verticalAlign=top;spacingLeft=4;spacingRight=4;overflow=hidden;rotatable=0;points=[[0,0.5],[1,0.5]];portConstraint=eastwest;whiteSpace=wrap;html=1;fontSize=16;" vertex="1" parent="137">
                    <mxGeometry y="112" width="179" height="26" as="geometry"/>
                </mxCell>
                <mxCell id="143" value="+ updateMember(user: User)" style="text;strokeColor=none;fillColor=none;align=left;verticalAlign=top;spacingLeft=4;spacingRight=4;overflow=hidden;rotatable=0;points=[[0,0.5],[1,0.5]];portConstraint=eastwest;whiteSpace=wrap;html=1;fontSize=16;" vertex="1" parent="137">
                    <mxGeometry y="138" width="179" height="26" as="geometry"/>
                </mxCell>
                <mxCell id="144" value="+ removeMember(user: User)" style="text;strokeColor=none;fillColor=none;align=left;verticalAlign=top;spacingLeft=4;spacingRight=4;overflow=hidden;rotatable=0;points=[[0,0.5],[1,0.5]];portConstraint=eastwest;whiteSpace=wrap;html=1;fontSize=16;" vertex="1" parent="137">
                    <mxGeometry y="164" width="179" height="26" as="geometry"/>
                </mxCell>
                <mxCell id="145" value="" style="edgeStyle=orthogonalEdgeStyle;shape=connector;curved=0;rounded=1;html=1;strokeColor=default;strokeWidth=3;align=center;verticalAlign=middle;fontFamily=Helvetica;fontSize=11;fontColor=default;labelBackgroundColor=default;startArrow=ERmany;startFill=0;endArrow=ERoneToMany;endFill=0;exitX=0.998;exitY=0.073;exitDx=0;exitDy=0;exitPerimeter=0;" edge="1" parent="1" source="137" target="91">
                    <mxGeometry relative="1" as="geometry">
                        <Array as="points">
                            <mxPoint x="897" y="678"/>
                            <mxPoint x="897" y="852"/>
                        </Array>
                    </mxGeometry>
                </mxCell>
                <mxCell id="146" value="&lt;font style=&quot;font-size: 16px;&quot;&gt;&lt;b&gt;has&lt;/b&gt;&lt;/font&gt;" style="edgeLabel;html=1;align=center;verticalAlign=middle;resizable=0;points=[];fontFamily=Helvetica;fontSize=11;fontColor=default;labelBackgroundColor=default;" vertex="1" connectable="0" parent="145">
                    <mxGeometry x="-0.07" y="-3" relative="1" as="geometry">
                        <mxPoint as="offset"/>
                    </mxGeometry>
                </mxCell>
                <mxCell id="147" value="&lt;b&gt;&lt;font&gt;ProjectManager&lt;/font&gt;&lt;/b&gt;" style="swimlane;fontStyle=0;childLayout=stackLayout;horizontal=1;startSize=26;fillColor=none;horizontalStack=0;resizeParent=1;resizeParentMax=0;resizeLast=0;collapsible=1;marginBottom=0;whiteSpace=wrap;html=1;fontSize=16;" vertex="1" parent="1">
                    <mxGeometry x="1106" y="1264" width="453" height="216" as="geometry"/>
                </mxCell>
                <mxCell id="148" value="- department: string" style="text;strokeColor=none;fillColor=none;align=left;verticalAlign=top;spacingLeft=4;spacingRight=4;overflow=hidden;rotatable=0;points=[[0,0.5],[1,0.5]];portConstraint=eastwest;whiteSpace=wrap;html=1;fontSize=16;" vertex="1" parent="147">
                    <mxGeometry y="26" width="453" height="26" as="geometry"/>
                </mxCell>
                <mxCell id="149" value="" style="line;strokeWidth=1;fillColor=none;align=left;verticalAlign=middle;spacingTop=-1;spacingLeft=3;spacingRight=3;rotatable=0;labelPosition=right;points=[];portConstraint=eastwest;strokeColor=inherit;" vertex="1" parent="147">
                    <mxGeometry y="52" width="453" height="8" as="geometry"/>
                </mxCell>
                <mxCell id="150" value="+ createProject(project: Project)" style="text;strokeColor=none;fillColor=none;align=left;verticalAlign=top;spacingLeft=4;spacingRight=4;overflow=hidden;rotatable=0;points=[[0,0.5],[1,0.5]];portConstraint=eastwest;whiteSpace=wrap;html=1;fontSize=16;" vertex="1" parent="147">
                    <mxGeometry y="60" width="453" height="26" as="geometry"/>
                </mxCell>
                <mxCell id="151" value="+ editProject(project: Project)" style="text;strokeColor=none;fillColor=none;align=left;verticalAlign=top;spacingLeft=4;spacingRight=4;overflow=hidden;rotatable=0;points=[[0,0.5],[1,0.5]];portConstraint=eastwest;whiteSpace=wrap;html=1;fontSize=16;" vertex="1" parent="147">
                    <mxGeometry y="86" width="453" height="26" as="geometry"/>
                </mxCell>
                <mxCell id="152" value="+ deleteProject(project: Project)" style="text;strokeColor=none;fillColor=none;align=left;verticalAlign=top;spacingLeft=4;spacingRight=4;overflow=hidden;rotatable=0;points=[[0,0.5],[1,0.5]];portConstraint=eastwest;whiteSpace=wrap;html=1;fontSize=16;" vertex="1" parent="147">
                    <mxGeometry y="112" width="453" height="26" as="geometry"/>
                </mxCell>
                <mxCell id="153" value="+ createTask(task: Task)" style="text;strokeColor=none;fillColor=none;align=left;verticalAlign=top;spacingLeft=4;spacingRight=4;overflow=hidden;rotatable=0;points=[[0,0.5],[1,0.5]];portConstraint=eastwest;whiteSpace=wrap;html=1;fontSize=16;" vertex="1" parent="147">
                    <mxGeometry y="138" width="453" height="26" as="geometry"/>
                </mxCell>
                <mxCell id="154" value="+ editTask(task: Task)" style="text;strokeColor=none;fillColor=none;align=left;verticalAlign=top;spacingLeft=4;spacingRight=4;overflow=hidden;rotatable=0;points=[[0,0.5],[1,0.5]];portConstraint=eastwest;whiteSpace=wrap;html=1;fontSize=16;" vertex="1" parent="147">
                    <mxGeometry y="164" width="453" height="26" as="geometry"/>
                </mxCell>
                <mxCell id="155" value="+ removeTask(task: Task)" style="text;strokeColor=none;fillColor=none;align=left;verticalAlign=top;spacingLeft=4;spacingRight=4;overflow=hidden;rotatable=0;points=[[0,0.5],[1,0.5]];portConstraint=eastwest;whiteSpace=wrap;html=1;fontSize=16;" vertex="1" parent="147">
                    <mxGeometry y="190" width="453" height="26" as="geometry"/>
                </mxCell>
                <mxCell id="156" value="TeamMemberUser" style="swimlane;fontStyle=1;childLayout=stackLayout;horizontal=1;startSize=26;fillColor=none;horizontalStack=0;resizeParent=1;resizeParentMax=0;resizeLast=0;collapsible=1;marginBottom=0;whiteSpace=wrap;html=1;fontSize=16;" vertex="1" parent="1">
                    <mxGeometry x="1583" y="1322" width="299" height="112" as="geometry"/>
                </mxCell>
                <mxCell id="157" value="" style="line;strokeWidth=1;fillColor=none;align=left;verticalAlign=middle;spacingTop=-1;spacingLeft=3;spacingRight=3;rotatable=0;labelPosition=right;points=[];portConstraint=eastwest;strokeColor=inherit;fontFamily=Helvetica;fontSize=11;fontColor=default;labelBackgroundColor=default;" vertex="1" parent="156">
                    <mxGeometry y="26" width="299" height="8" as="geometry"/>
                </mxCell>
                <mxCell id="158" value="+ viewTaskAssigned()" style="text;strokeColor=none;fillColor=none;align=left;verticalAlign=top;spacingLeft=4;spacingRight=4;overflow=hidden;rotatable=0;points=[[0,0.5],[1,0.5]];portConstraint=eastwest;whiteSpace=wrap;html=1;fontSize=16;" vertex="1" parent="156">
                    <mxGeometry y="34" width="299" height="26" as="geometry"/>
                </mxCell>
                <mxCell id="159" value="+ viewTaskDetails(taskId)" style="text;strokeColor=none;fillColor=none;align=left;verticalAlign=top;spacingLeft=4;spacingRight=4;overflow=hidden;rotatable=0;points=[[0,0.5],[1,0.5]];portConstraint=eastwest;whiteSpace=wrap;html=1;fontSize=16;" vertex="1" parent="156">
                    <mxGeometry y="60" width="299" height="26" as="geometry"/>
                </mxCell>
                <mxCell id="160" value="+ updateTaskStatus(taskId, taskStatus)" style="text;strokeColor=none;fillColor=none;align=left;verticalAlign=top;spacingLeft=4;spacingRight=4;overflow=hidden;rotatable=0;points=[[0,0.5],[1,0.5]];portConstraint=eastwest;whiteSpace=wrap;html=1;fontSize=16;" vertex="1" parent="156">
                    <mxGeometry y="86" width="299" height="26" as="geometry"/>
                </mxCell>
                <mxCell id="161" value="&lt;b&gt;&lt;font style=&quot;font-size: 16px;&quot;&gt;ClientUser&lt;/font&gt;&lt;/b&gt;" style="swimlane;fontStyle=0;childLayout=stackLayout;horizontal=1;startSize=26;fillColor=none;horizontalStack=0;resizeParent=1;resizeParentMax=0;resizeLast=0;collapsible=1;marginBottom=0;whiteSpace=wrap;html=1;" vertex="1" parent="1">
                    <mxGeometry x="1937" y="1274" width="315" height="164" as="geometry"/>
                </mxCell>
                <mxCell id="162" value="" style="line;strokeWidth=1;fillColor=none;align=left;verticalAlign=middle;spacingTop=-1;spacingLeft=3;spacingRight=3;rotatable=0;labelPosition=right;points=[];portConstraint=eastwest;strokeColor=inherit;fontFamily=Helvetica;fontSize=11;fontColor=default;labelBackgroundColor=default;" vertex="1" parent="161">
                    <mxGeometry y="26" width="315" height="8" as="geometry"/>
                </mxCell>
                <mxCell id="163" value="+ createProject(projectName: string)" style="text;strokeColor=none;fillColor=none;align=left;verticalAlign=top;spacingLeft=4;spacingRight=4;overflow=hidden;rotatable=0;points=[[0,0.5],[1,0.5]];portConstraint=eastwest;whiteSpace=wrap;html=1;fontSize=16;" vertex="1" parent="161">
                    <mxGeometry y="34" width="315" height="26" as="geometry"/>
                </mxCell>
                <mxCell id="164" value="+ addTask(projectId: string)" style="text;strokeColor=none;fillColor=none;align=left;verticalAlign=top;spacingLeft=4;spacingRight=4;overflow=hidden;rotatable=0;points=[[0,0.5],[1,0.5]];portConstraint=eastwest;whiteSpace=wrap;html=1;fontSize=16;" vertex="1" parent="161">
                    <mxGeometry y="60" width="315" height="26" as="geometry"/>
                </mxCell>
                <mxCell id="165" value="+ deleteProject(projectString: string)" style="text;strokeColor=none;fillColor=none;align=left;verticalAlign=top;spacingLeft=4;spacingRight=4;overflow=hidden;rotatable=0;points=[[0,0.5],[1,0.5]];portConstraint=eastwest;whiteSpace=wrap;html=1;fontSize=16;" vertex="1" parent="161">
                    <mxGeometry y="86" width="315" height="26" as="geometry"/>
                </mxCell>
                <mxCell id="166" value="+ editProject(projectId: string)" style="text;strokeColor=none;fillColor=none;align=left;verticalAlign=top;spacingLeft=4;spacingRight=4;overflow=hidden;rotatable=0;points=[[0,0.5],[1,0.5]];portConstraint=eastwest;whiteSpace=wrap;html=1;fontSize=16;" vertex="1" parent="161">
                    <mxGeometry y="112" width="315" height="26" as="geometry"/>
                </mxCell>
                <mxCell id="167" value="+ viewTasks()" style="text;strokeColor=none;fillColor=none;align=left;verticalAlign=top;spacingLeft=4;spacingRight=4;overflow=hidden;rotatable=0;points=[[0,0.5],[1,0.5]];portConstraint=eastwest;whiteSpace=wrap;html=1;fontSize=16;" vertex="1" parent="161">
                    <mxGeometry y="138" width="315" height="26" as="geometry"/>
                </mxCell>
                <mxCell id="168" style="edgeStyle=orthogonalEdgeStyle;shape=connector;curved=0;rounded=1;html=1;exitX=1;exitY=0.5;exitDx=0;exitDy=0;entryX=0.5;entryY=0;entryDx=0;entryDy=0;strokeColor=default;strokeWidth=3;align=center;verticalAlign=middle;fontFamily=Helvetica;fontSize=11;fontColor=default;labelBackgroundColor=default;startArrow=ERone;startFill=0;endArrow=ERone;endFill=0;" edge="1" parent="1" source="14" target="20">
                    <mxGeometry relative="1" as="geometry"/>
                </mxCell>
                <mxCell id="169" style="edgeStyle=orthogonalEdgeStyle;shape=connector;curved=0;rounded=1;html=1;exitX=0.5;exitY=0;exitDx=0;exitDy=0;entryX=1.001;entryY=0.04;entryDx=0;entryDy=0;entryPerimeter=0;strokeColor=default;strokeWidth=3;align=center;verticalAlign=middle;fontFamily=Helvetica;fontSize=11;fontColor=default;labelBackgroundColor=default;startArrow=ERone;startFill=0;endArrow=ERoneToMany;endFill=0;" edge="1" parent="1" source="76" target="26">
                    <mxGeometry relative="1" as="geometry"/>
                </mxCell>
                <mxCell id="170" value="&lt;font style=&quot;font-size: 16px;&quot;&gt;&lt;b&gt;Contain&lt;/b&gt;&lt;/font&gt;" style="edgeLabel;html=1;align=center;verticalAlign=middle;resizable=0;points=[];fontFamily=Helvetica;fontSize=11;fontColor=default;labelBackgroundColor=default;" vertex="1" connectable="0" parent="169">
                    <mxGeometry x="-0.1458" y="1" relative="1" as="geometry">
                        <mxPoint as="offset"/>
                    </mxGeometry>
                </mxCell>
                <mxCell id="171" style="edgeStyle=orthogonalEdgeStyle;shape=connector;curved=0;rounded=1;html=1;entryX=0.799;entryY=0.001;entryDx=0;entryDy=0;entryPerimeter=0;strokeColor=default;strokeWidth=3;align=center;verticalAlign=middle;fontFamily=Helvetica;fontSize=11;fontColor=default;labelBackgroundColor=default;startArrow=ERmany;startFill=0;endArrow=ERoneToMany;endFill=0;" edge="1" parent="1" source="53" target="76">
                    <mxGeometry relative="1" as="geometry"/>
                </mxCell>
                <mxCell id="172" style="edgeStyle=orthogonalEdgeStyle;shape=connector;curved=0;rounded=1;html=1;entryX=0.673;entryY=1.018;entryDx=0;entryDy=0;entryPerimeter=0;strokeColor=default;strokeWidth=3;align=center;verticalAlign=middle;fontFamily=Helvetica;fontSize=11;fontColor=default;labelBackgroundColor=default;startArrow=ERoneToMany;startFill=0;endArrow=ERone;endFill=0;" edge="1" parent="1" source="98" target="44">
                    <mxGeometry relative="1" as="geometry"/>
                </mxCell>
                <mxCell id="173" value="&lt;b&gt;&lt;font style=&quot;font-size: 16px;&quot;&gt;has&lt;/font&gt;&lt;/b&gt;" style="edgeLabel;html=1;align=center;verticalAlign=middle;resizable=0;points=[];fontFamily=Helvetica;fontSize=11;fontColor=default;labelBackgroundColor=default;" vertex="1" connectable="0" parent="172">
                    <mxGeometry x="0.0227" y="1" relative="1" as="geometry">
                        <mxPoint as="offset"/>
                    </mxGeometry>
                </mxCell>
                <mxCell id="174" style="edgeStyle=orthogonalEdgeStyle;html=1;entryX=0.75;entryY=0;entryDx=0;entryDy=0;strokeWidth=3;startArrow=ERone;startFill=0;endArrow=ERoneToMany;endFill=0;" edge="1" parent="1" source="19" target="98">
                    <mxGeometry relative="1" as="geometry">
                        <Array as="points">
                            <mxPoint x="253" y="970"/>
                        </Array>
                    </mxGeometry>
                </mxCell>
                <mxCell id="175" value="&lt;span style=&quot;font-size: 16px;&quot;&gt;&lt;b&gt;comments&lt;/b&gt;&lt;/span&gt;" style="edgeLabel;html=1;align=center;verticalAlign=middle;resizable=0;points=[];" vertex="1" connectable="0" parent="174">
                    <mxGeometry x="-0.1404" y="4" relative="1" as="geometry">
                        <mxPoint as="offset"/>
                    </mxGeometry>
                </mxCell>
                <mxCell id="176" style="edgeStyle=orthogonalEdgeStyle;html=1;entryX=1;entryY=0.5;entryDx=0;entryDy=0;strokeWidth=3;endArrow=ERoneToMany;endFill=0;exitX=0.274;exitY=1.038;exitDx=0;exitDy=0;exitPerimeter=0;startArrow=ERone;startFill=0;" edge="1" parent="1" source="19" target="109">
                    <mxGeometry relative="1" as="geometry">
                        <Array as="points">
                            <mxPoint x="1402" y="1087"/>
                            <mxPoint x="696" y="1087"/>
                            <mxPoint x="696" y="1352"/>
                        </Array>
                    </mxGeometry>
                </mxCell>
                <mxCell id="177" value="&lt;b&gt;&lt;font style=&quot;font-size: 16px;&quot;&gt;upload&lt;/font&gt;&lt;/b&gt;" style="edgeLabel;html=1;align=center;verticalAlign=middle;resizable=0;points=[];" vertex="1" connectable="0" parent="176">
                    <mxGeometry x="0.1154" y="2" relative="1" as="geometry">
                        <mxPoint as="offset"/>
                    </mxGeometry>
                </mxCell>
                <mxCell id="178" style="edgeStyle=orthogonalEdgeStyle;html=1;entryX=0.51;entryY=0.921;entryDx=0;entryDy=0;entryPerimeter=0;strokeWidth=3;startArrow=ERone;startFill=0;endArrow=ERoneToMany;endFill=0;" edge="1" parent="1" source="17" target="144">
                    <mxGeometry relative="1" as="geometry">
                        <Array as="points">
                            <mxPoint x="771" y="928"/>
                        </Array>
                    </mxGeometry>
                </mxCell>
                <mxCell id="179" value="&lt;font style=&quot;font-size: 16px;&quot;&gt;&lt;b&gt;create&lt;/b&gt;&lt;/font&gt;" style="edgeLabel;html=1;align=center;verticalAlign=middle;resizable=0;points=[];" vertex="1" connectable="0" parent="178">
                    <mxGeometry x="-0.1178" y="-3" relative="1" as="geometry">
                        <mxPoint as="offset"/>
                    </mxGeometry>
                </mxCell>
            </root>
        </mxGraphModel>
    </diagram>
</mxfile>